<?xml version="1.0" encoding="UTF-8"?>
<svg width="24px" height="24px" viewBox="0 0 24 24" version="1.1" xmlns="http://www.w3.org/2000/svg" xmlns:xlink="http://www.w3.org/1999/xlink">
    <!-- Generator: sketchtool 50.2 (55047) - http://www.bohemiancoding.com/sketch -->
    <title>36A5E287-AC74-427F-BD30-D5E7944C5776</title>
    <desc>Created with sketchtool.</desc>
    <defs></defs>
    <g id="Frontend-Test" stroke="none" stroke-width="1" fill="none" fill-rule="evenodd">
        <g id="4" transform="translate(-760.000000, -861.000000)">
            <g id="Group-2" transform="translate(325.000000, 861.000000)" fill-rule="nonzero">
                <circle id="Oval" fill="#76C2AF" cx="447" cy="12" r="10"></circle>
                <path d="M448,5.375 C445.065938,5.375 442.6875,7.725625 442.6875,10.625 C442.6875,15.21875 448,18.5 448,18.5 C448,18.5 453.3125,15.3009375 453.3125,10.625 C453.3125,7.725625 450.934062,5.375 448,5.375 Z M448,12.875 C446.619375,12.875 445.5,11.755625 445.5,10.375 C445.5,8.994375 446.619375,7.875 448,7.875 C449.380625,7.875 450.5,8.994375 450.5,10.375 C450.5,11.755625 449.380625,12.875 448,12.875 Z" id="Shape" fill="#231F20"></path>
                <path d="M447.3125,5 C444.378438,5 442,7.350625 442,10.25 C442,14.84375 447.3125,18.125 447.3125,18.125 C447.3125,18.125 452.625,14.9259375 452.625,10.25 C452.625,7.350625 450.246562,5 447.3125,5 Z M447.3125,12.5 C445.931875,12.5 444.8125,11.380625 444.8125,10 C444.8125,8.619375 445.931875,7.5 447.3125,7.5 C448.693125,7.5 449.8125,8.619375 449.8125,10 C449.8125,11.380625 448.693125,12.5 447.3125,12.5 Z" id="Shape" fill="#FFFFFF"></path>
            </g>
            <g id="Group" transform="translate(760.000000, 824.000000)"></g>
        </g>
    </g>
</svg>