<?xml version="1.0" encoding="UTF-8"?>
<svg width="24px" height="24px" viewBox="0 0 24 24" version="1.1" xmlns="http://www.w3.org/2000/svg" xmlns:xlink="http://www.w3.org/1999/xlink">
    <!-- Generator: sketchtool 50.2 (55047) - http://www.bohemiancoding.com/sketch -->
    <title>296F79E7-CD30-401A-BE5D-40197FC3D3F4</title>
    <desc>Created with sketchtool.</desc>
    <defs></defs>
    <g id="Frontend-Test" stroke="none" stroke-width="1" fill="none" fill-rule="evenodd">
        <g id="4" transform="translate(-760.000000, -824.000000)" fill-rule="nonzero">
            <g id="Group" transform="translate(760.000000, 824.000000)">
                <circle id="Oval" fill="#77B3D4" cx="12" cy="12" r="10"></circle>
                <path d="M11.2924374,9.54461662 C11.1544595,8.04649162 9.49971683,7.31149162 9.42956977,7.28149162 C9.36372419,7.25211662 9.2902683,7.24336662 9.21945948,7.25492912 C7.30894477,7.55430412 7.02173889,8.60430412 7.01015801,8.64805412 C6.99427566,8.70930412 6.9972536,8.77274162 7.01743742,8.83211662 C9.2958933,15.5089916 14.0314815,16.7468041 15.588283,17.1539916 C15.7080624,17.1852416 15.8069962,17.2105541 15.8821065,17.2336791 C15.9185036,17.2452416 15.9558933,17.2499291 15.993283,17.2499291 C16.0445698,17.2499291 16.0958565,17.2396166 16.1428418,17.2193041 C16.1904889,17.1989916 17.3154889,16.6983666 17.5904521,15.0658666 C17.6026948,14.9949291 17.5904521,14.9211791 17.5557095,14.8571166 C17.5312242,14.8121166 16.9425845,13.7546166 15.3110036,13.3808666 C15.1968492,13.3530541 15.0800477,13.3814916 14.992033,13.4524291 C14.4771801,13.8677416 13.7661139,14.3102416 13.4593859,14.3558666 C11.4022904,13.4058666 10.2537977,11.5833666 10.2104521,11.2377416 C10.1853051,11.0433666 10.6564815,10.3608666 11.1987977,9.80586662 C11.2672904,9.73555412 11.302033,9.64024162 11.2924374,9.54461662 Z" id="Shape" fill="#231F20"></path>
                <path d="M11.0513518,9.29463288 C10.9211234,7.79649726 9.3593197,7.06149205 9.29311247,7.03149184 C9.23096511,7.00211663 9.1616349,6.99336657 9.09480307,7.00492915 C7.29159282,7.30430627 7.02051792,8.35431372 7.00958748,8.39806403 C6.99459716,8.45931446 6.99740785,8.52275241 7.01645804,8.58212783 C9.16694397,15.2590502 13.6365569,16.4968714 15.1059203,16.9040618 C15.2189722,16.935312 15.3123494,16.9606247 15.3832411,16.9837499 C15.4175939,16.9953125 15.4528836,17 15.4881734,17 C15.5365796,17 15.5849858,16.9896874 15.6293322,16.9693748 C15.6743031,16.9490621 16.7361173,16.4484336 16.9956371,14.815922 C17.0071922,14.744984 16.9956371,14.6712335 16.9628458,14.6071705 C16.9397357,14.5621702 16.3841571,13.5046627 14.8442143,13.1309101 C14.7364714,13.1030974 14.6262301,13.1315351 14.5431588,13.2024731 C14.0572227,13.6177885 13.3860937,14.0602917 13.0965932,14.105917 C11.1550348,13.1559103 10.0710475,11.3333973 10.0301364,10.9877699 C10.0064017,10.7933935 10.4511145,10.1108887 10.9629713,9.55588473 C11.0276171,9.48557174 11.0604084,9.39025856 11.0513518,9.29463288 Z" id="Shape" fill="#FFFFFF"></path>
            </g>
        </g>
    </g>
</svg>